<?xml version="1.0" standalone="no"?>
<!DOCTYPE svg PUBLIC "-//W3C//DTD SVG 20010904//EN"
 "http://www.w3.org/TR/2001/REC-SVG-20010904/DTD/svg10.dtd">
<svg version="1.0" xmlns="http://www.w3.org/2000/svg"
 width="45.000000pt" height="42.000000pt" viewBox="0 0 45.000000 42.000000"
 preserveAspectRatio="xMidYMid meet">

<g transform="translate(0.000000,42.000000) scale(0.100000,-0.100000)"
fill="#000000" stroke="none">
<path d="M5 391 c-8 -14 3 -31 20 -31 13 0 22 -23 70 -193 21 -71 32 -77 160
-77 74 0 97 4 113 18 23 19 77 183 68 207 -4 13 -33 15 -174 15 l-168 0 -9 33
c-8 26 -16 33 -42 35 -17 2 -34 -2 -38 -7z m362 -181 l-20 -70 -98 0 -98 0
-17 58 c-9 31 -19 63 -21 70 -4 9 27 12 135 12 l140 0 -21 -70z"/>
<path d="M119 54 c-17 -21 0 -49 31 -49 31 0 48 28 31 49 -8 9 -21 16 -31 16
-10 0 -23 -7 -31 -16z"/>
<path d="M314 56 c-12 -31 0 -51 31 -51 27 0 30 3 30 30 0 25 -4 30 -28 33
-17 2 -29 -2 -33 -12z"/>
</g>
</svg>
