<?xml version="1.0" standalone="no"?>
<!DOCTYPE svg PUBLIC "-//W3C//DTD SVG 20010904//EN"
 "http://www.w3.org/TR/2001/REC-SVG-20010904/DTD/svg10.dtd">
<svg version="1.0" xmlns="http://www.w3.org/2000/svg"
 width="42.000000pt" height="42.000000pt" viewBox="0 0 42.000000 42.000000"
 preserveAspectRatio="xMidYMid meet">

<g transform="translate(0.000000,42.000000) scale(0.100000,-0.100000)"
fill="#000000" stroke="none">
<path d="M135 381 c-157 -72 -153 -299 7 -366 135 -56 278 42 278 190 0 142
-154 237 -285 176z m175 -55 c65 -43 88 -144 46 -201 -13 -18 -14 -18 -38 1
-24 18 -25 20 -10 50 18 40 10 78 -25 110 -75 70 -195 -17 -151 -110 15 -30
14 -32 -8 -49 -30 -22 -39 -17 -54 29 -24 70 13 153 83 185 53 25 105 20 157
-15z m-58 -73 c22 -20 23 -51 1 -75 -20 -22 -46 -23 -67 -2 -23 22 -20 60 6
78 28 20 37 20 60 -1z m37 -160 c23 -15 24 -16 6 -29 -30 -22 -83 -28 -122
-13 -46 18 -47 30 -3 52 39 20 79 17 119 -10z"/>
</g>
</svg>
